<?xml version="1.0" encoding="UTF-8" standalone="no"?>
<!-- Created with Inkscape (http://www.inkscape.org/) -->

<svg
   width="792"
   height="792"
   viewBox="0 0 209.55 209.55"
   version="1.1"
   id="svg1"
   xml:space="preserve"
   inkscape:export-filename="splash_android.png"
   inkscape:export-xdpi="139.63637"
   inkscape:export-ydpi="139.63637"
   inkscape:version="1.4.2 (ebf0e94, 2025-05-08)"
   sodipodi:docname="logotipo.svg"
   xmlns:inkscape="http://www.inkscape.org/namespaces/inkscape"
   xmlns:sodipodi="http://sodipodi.sourceforge.net/DTD/sodipodi-0.dtd"
   xmlns="http://www.w3.org/2000/svg"
   xmlns:svg="http://www.w3.org/2000/svg"><sodipodi:namedview
     id="namedview1"
     pagecolor="#505050"
     bordercolor="#eeeeee"
     borderopacity="1"
     inkscape:showpageshadow="true"
     inkscape:pageopacity="0"
     inkscape:pagecheckerboard="true"
     inkscape:deskcolor="#505050"
     inkscape:document-units="mm"
     inkscape:export-bgcolor="#88888800"
     inkscape:zoom="0.45166245"
     inkscape:cx="613.28986"
     inkscape:cy="523.62113"
     inkscape:window-width="1366"
     inkscape:window-height="707"
     inkscape:window-x="0"
     inkscape:window-y="0"
     inkscape:window-maximized="1"
     inkscape:current-layer="layer1"
     labelstyle="default" /><defs
     id="defs1" /><g
     inkscape:label="Capa 1"
     inkscape:groupmode="layer"
     id="layer1"><rect
       style="fill:#000000;stroke-width:0.575453"
       id="rect1"
       width="958.47021"
       height="217.02444"
       x="-1.1832668"
       y="-0.59163344" /><g
       stroke="none"
       stroke-width="0"
       stroke-miterlimit="10"
       id="g9"
       transform="matrix(1.2494997,0,0,1.247531,-295.52013,-119.25721)"><path
         d="m 322.76838,148.61822 c -5.58886,0 -10.11953,-4.53067 -10.11953,-10.11953 v -15.40417 c 0,-5.58886 4.53067,-10.11953 10.11953,-10.11953 h 54.53301 c 5.58886,0 10.11953,4.53067 10.11953,10.11953 v 15.40417 c 0,5.58886 -4.53067,10.11953 -10.11953,10.11953 z"
         fill="#ffffff"
         id="path1" /><path
         d="m 322.76838,183.13705 c -5.58886,0 -10.11953,-4.53067 -10.11953,-10.11953 v -43.85129 c 0,-5.58886 58.13106,-5.58886 58.13106,0 v 43.85129 c 0,5.58886 -4.53067,10.11953 -10.11953,10.11953 z"
         fill="#ffffff"
         id="path2" /><path
         d="m 376.96406,160.50538 c 5.58886,0 10.11953,4.53067 10.11953,10.11953 v 43.85128 c 0,5.58886 -54.95278,5.58886 -54.95278,0 v -43.85128 c 0,-5.58886 15.02499,-10.11953 20.61385,-10.11953 z"
         fill="#ffffff"
         id="path3" /><path
         d="m 262.70336,247.025 c -5.58886,0 -10.11953,-4.53067 -10.11953,-10.11953 v -26.01843 c 0,-5.58886 4.53067,-10.11953 10.11953,-10.11953 h 114.26071 c 5.58886,0 10.11953,4.53067 10.11953,10.11953 v 26.01843 c 0,5.58886 -4.53067,10.11953 -10.11953,10.11953 z"
         fill="#ffffff"
         id="path4" /><path
         d="m 292.13994,180.83438 c 5.58886,0 10.11953,4.53067 10.11953,10.11953 v 43.85128 c 0,5.58886 -49.67563,5.58886 -49.67563,0 v -43.85128 c 0,-5.58886 4.53067,-10.11953 10.11953,-10.11953 z"
         fill="#ffffff"
         id="path5" /><path
         d="m 258.20105,178.48327 c -3.10492,0 -5.62196,-3.11269 -5.62196,-6.95239 0,0 7.91412,-12.4216 11.01904,-12.4216 h 28.63451 c 3.10492,0 10.48992,12.4216 10.48992,12.4216 0,3.8397 -2.51704,6.95239 -5.62196,6.95239 z"
         fill="#ffffff"
         id="path6" /><path
         d="m 264.24875,156.1899 c -2.13948,0 -3.87387,-2.14483 -3.87387,-4.79062 0,0 5.45331,-8.55924 7.59279,-8.55924 h 19.73092 c 2.13948,0 7.22819,8.55924 7.22819,8.55924 0,2.64579 -1.73439,4.79062 -3.87387,4.79062 z"
         fill="#ffffff"
         id="path7" /><path
         d="m 268.37747,139.80608 c -1.48038,0 -2.68046,-1.11098 -2.68046,-2.48145 0,0 10.32245,-24.39256 12.89958,-24.34958 2.45573,0.041 11.00808,24.34958 11.00808,24.34958 0,1.37046 -1.20009,2.48145 -2.68046,2.48145 z"
         fill="#ffffff"
         id="path8" /><path
         d="m 370.77991,123.11435 c 0,-2.60813 2.11431,-4.72245 4.72245,-4.72245 2.60813,0 4.72245,2.11431 4.72245,4.72245 0,2.60813 -2.11431,4.72245 -4.72245,4.72245 -2.60813,0 -4.72245,-2.11431 -4.72245,-4.72245 z"
         fill="#000000"
         id="path9" /></g><text
       xml:space="preserve"
       style="font-style:normal;font-variant:normal;font-weight:normal;font-stretch:normal;font-size:212.131px;font-family:Kirsty;-inkscape-font-specification:Kirsty;text-align:center;writing-mode:lr-tb;direction:ltr;text-anchor:middle;fill:#ffffff;stroke-width:122.86;stroke-linecap:round;stroke-linejoin:round;paint-order:stroke fill markers"
       x="578.5481"
       y="191.55621"
       id="text1"
       inkscape:export-filename="../../Repositorios/Organizaciones/Skells-Software/Maretu/docs/img/logotipo.png"
       inkscape:export-xdpi="120"
       inkscape:export-ydpi="120"><tspan
         sodipodi:role="line"
         id="tspan1"
         style="stroke-width:122.86"
         x="578.5481"
         y="191.55621">Maretu</tspan></text></g></svg>
